<?xml version="1.0"?>
<!DOCTYPE svg PUBLIC "-//W3C//DTD SVG 1.0//EN" "http://www.w3.org/TR/2001/REC-SVG-20010904/DTD/svg10.dtd">
<svg xmlns="http://www.w3.org/2000/svg" width="256px" height="256px">
<path d="M 69.6423 71.9062C 47.6613 94.6175 22.5513 129.771 23.8384 163.739C 25.0689 196.214 43.1208 217.579 67.9052 217.646C 94.7809 217.719 105.068 199.684 105.768 182.136C 106.378 166.845 99.0723 157.769 92.4154 147.378C 80.7074 129.103 86.5233 106.711 93.9322 94.6143C 83.0456 90.0782 74.2634 82.5566 69.6423 71.9062 z" fill="#80f683" stroke="#42ba46" stroke-linejoin="round" stroke-width="11" />
<path d="M 108.601 206.586C 139.26 214.266 182.258 218.436 211.032 200.337C 238.541 183.034 248.018 156.718 235.684 135.221C 222.309 111.91 201.545 112.017 185.998 120.185C 172.451 127.302 168.245 138.168 162.575 149.128C 152.602 168.405 130.301 174.564 116.121 174.196C 117.636 185.892 115.514 197.259 108.601 206.586 z" fill="#ebe06a" stroke="#a79e35" stroke-linejoin="round" stroke-width="11" />
<path d="M 205.757 105.508C 197.079 75.1162 179.191 35.7935 149.13 19.924C 120.391 4.7522 92.8618 9.7027 80.4114 31.133C 66.9105 54.3715 77.3862 72.2987 92.2331 81.6792C 105.17 89.853 116.683 88.0627 129.01 87.4932C 150.691 86.4915 167.176 102.726 173.947 115.19C 183.319 108.03 194.223 104.185 205.757 105.508 z" fill="#e45c4b" stroke="#b0483c" stroke-linejoin="round" stroke-width="11" />
</svg>
