<?xml version="1.0"?>
<!DOCTYPE svg PUBLIC "-//W3C//DTD SVG 1.0//EN" "http://www.w3.org/TR/2001/REC-SVG-20010904/DTD/svg10.dtd">
<svg xmlns="http://www.w3.org/2000/svg" xmlns:xlink="http://www.w3.org/1999/xlink" xmlns:sodipodi="http://sodipodi.sourceforge.net/DTD/sodipodi-0.dtd" xmlns:inkscape="http://www.inkscape.org/namespaces/inkscape" xmlns:realworld="http://www.rw-designer.com/export-svg" width="256px" height="256px">
  <g inkscape:groupmode="layer" inkscape:label="Copy of Copy of layer 0">
    <path d="M 200.998 20.9996C 210.387 22.6551 216.656 31.6085 215 40.9976C 213.344 50.3867 204.391 56.656 195.002 55.0004C 187.161 53.6179 181.519 47.144 180.828 39.5791L 145 32L 133.565 85.0889C 159.505 86.0706 182.782 93.9326 199.751 106.002C 204.242 101.697 210.287 99 217 99C 230.807 99 242 110.193 242 124C 242 134.101 235.981 142.739 227.359 146.683C 227.728 149.092 228 151.524 228 154C 228 192.108 183.229 223 128 223C 72.7715 223 28 192.108 28 154C 28 151.524 28.272 149.092 28.6406 146.683C 20.0191 142.739 14 134.101 14 124C 14 110.193 25.1929 99 39 99C 45.7125 99 51.758 101.697 56.249 106.002C 73.3702 93.8247 96.9116 85.9248 123.131 85.0576L 136 25C 136.584 22.3435 139.315 20.4668 142 21L 182.924 29.6152C 186.401 23.3621 193.556 19.6873 200.998 20.9996 z M 97 185C 103.901 188.981 112.075 191.183 120 192C 130.03 193.034 140.465 191.281 150 188C 152.871 187.012 156.37 186.517 159 185C 161.907 183.323 164.658 180.301 168 180C 168.794 179.928 170.215 180.394 171 182C 171.905 183.851 171.251 186.541 171 187C 169.477 189.79 166.671 191.277 164 193C 160.836 195.041 157.561 196.777 154 198C 139.563 202.959 122.791 203.774 108 200C 102.532 198.605 96.7423 196.058 92 193C 88.863 190.977 84.3982 189.711 84 186C 83.7485 183.656 85.6563 180.251 88 180C 91.3366 179.642 94.0933 183.323 97 185 z M 88 124C 97.3888 124 105 131.611 105 141C 105 150.389 97.3888 158 88 158C 78.6112 158 71 150.389 71 141C 71 131.611 78.6112 124 88 124 z M 168 124C 177.389 124 185 131.611 185 141C 185 150.389 177.389 158 168 158C 158.611 158 151 150.389 151 141C 151 131.611 158.611 124 168 124 z" fill="#ffffff" fill-rule="evenodd" />
  </g>
</svg>
