<?xml version="1.0"?>
<!DOCTYPE svg PUBLIC "-//W3C//DTD SVG 1.0//EN" "http://www.w3.org/TR/2001/REC-SVG-20010904/DTD/svg10.dtd">
<svg xmlns="http://www.w3.org/2000/svg" xmlns:xlink="http://www.w3.org/1999/xlink" xmlns:sodipodi="http://sodipodi.sourceforge.net/DTD/sodipodi-0.dtd" xmlns:inkscape="http://www.inkscape.org/namespaces/inkscape" xmlns:realworld="http://www.rw-designer.com/export-svg" width="256px" height="256px">
  <g inkscape:groupmode="layer" inkscape:label="twitter">
    <path id="unnamed" d="M 21.0544 216.618C 21.0544 216.618 44.1722 235.609 85.0784 237.5C 122.165 239.214 146.221 228.069 168.438 213.438C 189.579 199.516 211.391 169.394 216.906 145.89C 224.125 115.124 222.992 99.6888 222.992 99.6888C 222.992 99.6888 231.376 93.2879 235.51 89.2984C 240.53 84.4542 245.414 76.052 245.414 76.052C 245.414 76.052 236.847 79.8192 232.654 81.156C 228.681 82.4226 220.379 83.5264 220.379 83.5264C 220.379 83.5264 228.402 75.4448 231.926 71.4952C 235.649 67.3231 240.625 57.3752 240.625 57.3752C 240.625 57.3752 229.555 62.7453 224.815 64.9328C 219.658 67.3129 210.462 69.4064 210.462 69.4064C 210.462 69.4064 200.048 56.4515 187 54.6248C 169.812 52.2186 159.097 53.7673 143.547 68.4736C 125.297 85.7342 131.484 110.828 131.484 110.828C 131.484 110.828 106.462 108.361 95.3904 104.297C 81.8122 99.3126 63.5939 89.6874 56.3752 83.328C 48.3315 76.2419 36.2656 62.5312 36.2656 62.5312C 36.2656 62.5312 29.156 69.9231 29.3904 82.8128C 29.5623 92.2659 32.968 104.593 36.7816 110.313C 40.5629 115.985 48.1248 124.406 48.1248 124.406C 48.1248 124.406 42.6334 125.063 39.4456 124.234C 35.1487 123.117 28.8752 119.25 28.8752 119.25C 28.8752 119.25 29.906 138.843 40.3904 149.414C 49.6762 158.777 64.4528 165.399 64.4528 165.399C 64.4528 165.399 58.0955 167.375 55.516 167.375C 53.1957 167.375 43.484 165.656 43.484 165.656C 43.484 165.656 50.8748 179.062 62.3904 187.656C 74.5125 196.702 88.8592 197.883 88.8592 197.883C 88.8592 197.883 77.0322 207.234 64.1952 211.547C 42.7108 218.766 21.0544 216.618 21.0544 216.618 z" fill="#ffffff" fill-rule="evenodd" />
  </g>
</svg>
